<?xml version="1.0" standalone="no"?>
<!DOCTYPE svg PUBLIC "-//W3C//DTD SVG 20010904//EN"
 "http://www.w3.org/TR/2001/REC-SVG-20010904/DTD/svg10.dtd">
<svg version="1.0" xmlns="http://www.w3.org/2000/svg"
 width="600.000000pt" height="600.000000pt" viewBox="0 0 600.000000 600.000000"
 preserveAspectRatio="xMidYMid meet">
<g transform="translate(0.000000,600.000000) scale(0.100000,-0.100000)"
fill="#000000" stroke="none">
<path d="M555 3510 c-3 -6 1 -7 9 -4 18 7 21 14 7 14 -6 0 -13 -4 -16 -10z"/>
<path d="M650 3511 c8 -6 13 -11 10 -12 -25 -4 -72 -10 -103 -13 -21 -2 -44
-9 -50 -15 -15 -15 -30 -14 -21 2 4 7 3 9 -2 4 -5 -5 -9 -14 -9 -20 0 -7 -11
-13 -24 -13 -13 -1 -28 -9 -33 -18 -5 -9 -14 -16 -21 -16 -7 0 -18 -9 -25 -21
-8 -13 -19 -18 -29 -15 -11 4 -14 2 -10 -9 4 -8 1 -17 -5 -21 -7 -4 -8 -3 -4
4 4 7 2 12 -3 12 -6 0 -11 -9 -11 -20 0 -11 -4 -20 -9 -20 -4 0 -19 -20 -32
-44 -13 -25 -27 -42 -31 -40 -7 5 -11 -28 -5 -42 1 -3 -6 -10 -15 -15 -10 -6
-18 -21 -18 -35 0 -14 -4 -23 -9 -20 -5 3 -11 -8 -15 -25 -8 -43 -6 -58 5 -34
6 14 7 10 2 -15 -4 -19 -7 -51 -6 -70 5 -95 8 -118 16 -107 5 7 5 -3 2 -22 -5
-23 -4 -31 4 -27 7 5 11 -5 11 -29 0 -22 4 -34 10 -30 6 3 10 1 10 -4 0 -6 5
-10 11 -9 6 2 14 -4 16 -12 4 -12 3 -12 -5 -2 -6 10 -9 5 -8 -16 1 -25 4 -28
15 -19 12 10 13 8 8 -15 -5 -16 -3 -30 5 -34 8 -5 9 -2 5 9 -3 10 -2 17 3 17
10 0 14 -15 11 -34 -1 -5 5 -3 14 4 14 11 16 11 13 -1 -2 -8 3 -13 10 -11 10
2 10 -2 1 -20 -11 -20 -11 -22 3 -10 13 10 18 10 24 1 4 -7 3 -9 -3 -6 -6 4
-14 0 -17 -8 -8 -21 -7 -25 2 -24 4 1 6 5 5 9 -3 11 36 20 42 10 3 -5 0 -12
-6 -16 -8 -5 -9 -3 -4 6 5 9 4 11 -4 6 -16 -10 -4 -26 14 -19 8 3 15 0 15 -6
0 -6 6 -11 14 -11 7 0 27 -7 42 -15 16 -8 38 -15 49 -15 17 0 17 -2 5 -10 -13
-8 -13 -10 2 -10 9 0 24 -3 34 -7 11 -4 15 -3 10 5 -4 7 7 6 28 -3 28 -12 58
-14 133 -9 54 4 108 7 121 8 12 1 22 4 22 9 0 4 10 7 23 7 18 0 19 2 7 10 -13
8 -12 10 3 10 11 0 33 10 50 22 17 12 27 17 23 10 -5 -8 -2 -10 8 -6 9 3 13
10 10 15 -3 5 0 9 6 9 6 0 8 5 4 13 -5 8 -3 8 9 -2 9 -7 14 -18 10 -25 -4 -6
1 -5 10 3 18 14 22 23 9 18 -4 -1 -7 3 -7 8 0 6 6 9 13 9 6 -1 12 2 12 7 0 5
-6 9 -12 9 -7 1 -3 6 10 13 12 7 19 17 15 22 -4 5 1 3 11 -5 18 -14 19 -13 13
3 -5 12 1 26 18 43 14 14 25 29 25 35 0 13 22 51 40 67 8 7 9 11 3 7 -7 -3
-13 -1 -13 4 0 6 5 11 11 11 6 0 8 7 5 16 -3 8 -2 12 4 9 6 -3 10 0 11 7 0 7
2 25 4 41 2 17 0 25 -7 21 -7 -4 -7 0 0 13 28 52 -20 63 -279 61 -218 -1 -222
-2 -245 -25 -13 -13 -20 -23 -16 -23 12 0 9 -40 -3 -40 -5 0 2 -11 17 -25 15
-13 26 -30 25 -37 -2 -7 -2 -10 0 -5 3 4 11 7 19 7 9 0 13 3 11 8 -3 4 55 6
129 4 86 -2 134 -7 134 -14 0 -6 9 -8 20 -5 11 3 20 3 20 0 0 -14 -27 -52 -56
-79 -19 -18 -34 -37 -34 -44 0 -10 -3 -10 -15 0 -9 7 -18 10 -22 6 -3 -3 -1
-6 5 -6 7 0 12 -5 12 -11 0 -6 -6 -9 -12 -6 -7 2 -22 0 -33 -5 -18 -8 -18 -8
3 -4 31 6 28 -1 -9 -20 -28 -14 -31 -14 -26 -1 4 11 1 14 -8 10 -8 -3 -13 -9
-10 -13 5 -8 -52 -20 -133 -26 -29 -2 -51 -1 -48 4 2 4 -4 9 -15 9 -11 1 -17
-3 -13 -9 4 -5 -5 -3 -18 6 -14 9 -28 13 -33 9 -4 -5 -5 0 -2 10 6 15 4 16
-14 6 -17 -9 -20 -8 -14 2 6 8 4 11 -7 7 -9 -4 -15 0 -15 8 0 8 7 14 16 15 10
0 8 4 -7 9 -12 5 -29 7 -36 4 -8 -3 -25 4 -37 15 -13 12 -27 21 -32 21 -5 0
-7 7 -3 15 3 8 1 15 -4 15 -6 0 -10 5 -10 11 0 5 5 7 12 3 7 -4 8 -3 4 4 -4 6
-13 9 -22 5 -8 -3 -14 -2 -12 3 1 5 -4 20 -12 34 -7 14 -13 47 -12 74 0 36 -2
46 -9 35 -8 -11 -9 -10 -5 6 3 11 6 45 7 75 1 30 6 60 11 66 5 7 8 16 7 20 -4
21 2 28 11 14 8 -11 9 -8 4 13 -4 18 -2 27 6 27 7 0 10 7 7 14 -4 10 -1 13 9
9 9 -3 14 1 14 15 0 24 25 46 41 36 9 -5 10 -2 6 9 -4 11 -2 14 8 10 8 -3 18
2 21 11 3 9 13 16 21 16 8 0 12 4 9 9 -7 11 22 23 36 14 6 -3 8 -1 5 5 -5 6 9
13 35 17 24 3 52 9 63 11 16 4 17 3 5 -5 -12 -9 -10 -11 13 -11 15 0 27 5 27
10 0 6 5 10 11 10 5 0 7 -4 4 -10 -3 -5 1 -10 10 -10 9 0 13 5 10 10 -3 6 -1
10 4 10 6 0 11 -4 11 -8 0 -4 12 -9 28 -10 15 -1 36 -6 47 -11 35 -16 60 -24
68 -22 5 1 6 -2 4 -6 -3 -5 1 -19 10 -33 8 -14 12 -17 9 -8 -3 12 -1 15 10 11
8 -3 13 -11 10 -18 -3 -8 2 -16 10 -19 9 -4 12 -11 8 -18 -5 -8 0 -7 11 2 10
8 16 10 12 4 -3 -6 11 -35 32 -65 37 -54 38 -54 87 -52 30 2 53 9 60 18 6 8
15 11 19 7 4 -4 2 4 -5 17 -6 13 -7 21 -2 17 6 -3 13 -2 17 4 3 5 -1 10 -9 10
-16 0 -22 15 -8 23 4 2 1 2 -5 1 -7 -2 -13 5 -13 16 0 10 -7 26 -16 34 -8 9
-11 16 -5 16 6 0 11 4 11 9 0 5 -10 7 -22 3 -14 -3 -19 -1 -14 6 3 6 1 14 -5
18 -8 5 -9 3 -4 -6 5 -8 4 -11 -3 -6 -6 4 -9 13 -6 21 4 8 11 12 16 9 6 -4 5
2 -1 14 -6 12 -17 24 -24 28 -9 5 -9 4 1 -7 6 -7 12 -17 12 -22 0 -4 -6 -5
-12 0 -7 4 -16 8 -20 8 -3 0 -10 4 -15 9 -5 5 -2 6 7 2 8 -4 5 1 -7 12 -12 11
-20 22 -17 24 2 3 -2 11 -11 18 -13 11 -15 10 -9 -6 5 -16 3 -16 -14 3 -11 12
-23 19 -27 15 -5 -4 -5 1 -2 10 4 11 2 15 -7 12 -7 -3 -20 1 -27 9 -8 7 -20
12 -27 9 -6 -2 -12 1 -12 8 0 6 -4 9 -9 6 -5 -4 -11 -1 -13 5 -3 10 -35 16
-93 19 -17 0 -17 2 -5 10 8 5 10 10 4 10 -5 0 -16 -6 -23 -12 -8 -8 -11 -8 -8
-2 4 7 -2 14 -13 17 -13 3 -18 1 -14 -5 7 -10 -15 -8 -63 8 -15 5 -15 4 -3 -5z
m-115 -41 c-3 -5 -12 -10 -18 -10 -7 0 -6 4 3 10 19 12 23 12 15 0z m286 -16
c124 -36 242 -133 298 -244 17 -35 31 -69 31 -75 0 -8 -17 -11 -50 -10 -49 2
-52 3 -72 44 -30 61 -107 134 -175 168 -53 26 -67 28 -168 28 -96 0 -116 -3
-160 -25 -64 -31 -155 -121 -183 -182 -46 -99 -46 -242 1 -337 29 -61 120
-152 180 -179 139 -65 318 -36 432 69 41 38 105 130 105 152 0 4 -85 7 -190 7
l-190 0 0 45 0 45 245 0 245 0 0 -22 c0 -13 -6 -45 -14 -73 -36 -135 -129
-246 -262 -312 -78 -38 -78 -38 -203 -38 -124 0 -127 0 -203 37 -177 84 -278
241 -279 433 0 96 11 146 53 229 54 108 154 191 283 237 65 23 202 25 276 3z
m-329 -751 c-6 -2 -9 -10 -6 -15 4 -7 2 -8 -5 -4 -13 9 -5 26 12 25 9 0 8 -2
-1 -6z"/>
<path d="M454 3364 c-18 -14 -18 -15 4 -4 12 6 22 13 22 15 0 8 -5 6 -26 -11z"/>
<path d="M946 3332 c-2 -4 4 -8 14 -8 10 0 16 4 14 8 -3 4 -9 8 -14 8 -5 0
-11 -4 -14 -8z"/>
<path d="M373 3298 c-11 -19 -13 -39 -1 -32 5 3 7 9 4 12 -3 3 -1 11 5 19 6 7
9 13 6 13 -3 0 -9 -6 -14 -12z"/>
<path d="M1077 2806 c-3 -8 0 -17 7 -19 10 -4 12 1 9 14 -6 23 -9 24 -16 5z"/>
<path d="M954 2666 c1 -8 5 -18 8 -22 4 -3 5 1 4 10 -1 8 -5 18 -8 22 -4 3 -5
-1 -4 -10z"/>
<path d="M376 2658 c3 -5 10 -6 15 -3 13 9 11 12 -6 12 -8 0 -12 -4 -9 -9z"/>
<path d="M1401 3502 c-1 -13 -7 -22 -13 -21 -7 2 -28 -1 -45 -5 -30 -7 -33
-11 -34 -49 -1 -23 -1 -48 0 -56 2 -7 -1 -11 -6 -8 -8 5 -6 -137 3 -162 6 -19
4 -403 -3 -548 -5 -92 -3 -113 8 -113 11 0 11 -2 -1 -10 -11 -7 -11 -10 -2
-10 7 0 10 -4 7 -10 -3 -5 1 -10 9 -10 8 0 20 -8 25 -17 6 -10 11 -13 11 -7 0
5 18 9 40 8 22 -1 37 2 35 7 -3 4 4 13 15 19 20 11 20 18 18 283 -1 150 0 360
1 467 1 107 0 194 -4 192 -4 -2 -15 7 -26 19 -10 12 -19 18 -20 13 -1 -5 -5 2
-9 16 -8 24 -8 25 -9 2z m39 -512 l0 -470 -52 0 -53 0 3 470 2 470 50 0 50 0
0 -470z m-123 228 c-2 -13 -4 -3 -4 22 0 25 2 35 4 23 2 -13 2 -33 0 -45z"/>
<path d="M1995 3510 c-3 -6 1 -7 9 -4 18 7 21 14 7 14 -6 0 -13 -4 -16 -10z"/>
<path d="M2153 3514 c7 -13 -14 -24 -41 -23 -14 0 -13 2 3 10 14 6 10 7 -15 2
-19 -4 -57 -8 -85 -9 -78 -2 -82 -3 -67 -13 9 -5 -6 -10 -40 -14 -29 -4 -54
-11 -56 -17 -2 -6 -8 -8 -13 -4 -5 3 -9 -1 -9 -9 0 -13 -47 -42 -62 -39 -4 1
-12 -7 -18 -18 -6 -11 -15 -18 -21 -15 -5 4 -8 2 -7 -3 2 -6 0 -9 -3 -8 -12 3
-38 -26 -33 -38 3 -7 -5 -21 -17 -32 -13 -10 -19 -13 -14 -5 6 10 4 12 -4 7
-6 -4 -9 -16 -6 -25 3 -11 -3 -28 -16 -42 l-21 -24 17 28 c9 16 14 31 12 34
-3 3 -12 -8 -21 -25 -8 -16 -12 -32 -9 -36 3 -3 -2 -26 -11 -50 -20 -51 -32
-251 -16 -261 6 -3 10 -22 10 -41 0 -25 7 -42 23 -55 16 -13 18 -18 7 -19 -9
0 -11 -3 -5 -8 12 -8 30 -36 48 -72 12 -25 28 -32 42 -18 4 3 -7 25 -24 48
-66 91 -97 251 -72 369 50 232 262 394 499 379 190 -12 356 -132 423 -306 31
-79 37 -218 14 -298 -26 -91 -73 -170 -134 -226 -31 -28 -55 -55 -53 -60 1 -5
-2 -7 -7 -4 -5 3 -40 -9 -77 -27 -66 -31 -74 -32 -195 -32 -124 0 -126 0 -200
37 -42 21 -96 56 -122 79 -26 22 -48 39 -48 37 -1 -1 -3 -13 -4 -26 -2 -16 2
-21 11 -18 7 3 20 -5 29 -17 8 -12 15 -17 15 -12 0 5 6 1 13 -10 8 -10 19 -15
25 -11 8 5 10 2 6 -8 -4 -11 0 -16 10 -16 9 0 16 -5 16 -11 0 -5 4 -8 9 -5 5
3 14 -1 21 -9 8 -9 21 -13 31 -10 12 4 21 1 25 -10 5 -13 9 -13 22 -3 9 8 13
8 9 2 -10 -16 39 -22 153 -18 98 3 187 23 183 41 -1 6 9 9 22 7 14 -1 25 2 25
7 0 5 12 14 26 19 14 6 23 14 20 18 -2 4 7 9 21 10 34 3 55 21 50 43 -5 19 12
21 26 4 5 -6 7 -4 6 5 -3 32 2 50 13 47 7 -1 14 8 16 21 2 12 8 20 13 16 5 -3
8 -2 7 3 -1 4 2 19 6 32 6 18 10 21 17 10 7 -9 7 -5 3 14 -3 15 -2 27 3 27 5
0 10 14 11 32 2 18 7 35 13 38 14 9 10 199 -5 235 -7 17 -12 40 -11 52 1 12
-2 20 -6 17 -4 -2 -15 16 -24 41 -10 25 -22 42 -28 38 -6 -4 -8 0 -4 11 4 9 3
15 -2 12 -14 -9 -32 19 -25 38 3 9 1 16 -6 16 -6 0 -8 -5 -4 -12 5 -9 3 -9 -9
1 -9 7 -14 17 -11 22 3 5 -1 7 -8 4 -13 -5 -54 52 -50 68 2 5 -2 6 -8 2 -8 -5
-8 -11 0 -20 6 -7 -8 -4 -30 7 -22 11 -40 27 -40 35 0 9 -6 13 -14 10 -8 -3
-16 -1 -18 5 -4 10 -16 13 -88 18 l-35 2 30 8 c21 5 24 8 10 9 -12 0 -27 7
-34 14 -9 7 -11 7 -8 1z m282 -903 c-3 -6 -11 -11 -17 -11 -6 0 -6 6 2 15 14
17 26 13 15 -4z"/>
<path d="M3839 3513 c-1 -5 -1 -11 -1 -14 1 -3 -15 -11 -34 -17 -19 -5 -32 -6
-28 -1 3 5 0 9 -5 9 -6 0 -11 -4 -11 -9 0 -10 -48 -25 -69 -22 -7 1 -10 -2 -6
-8 3 -6 1 -11 -5 -11 -6 0 -8 -5 -4 -12 4 -7 3 -8 -4 -4 -6 4 -22 0 -35 -9
-13 -8 -26 -12 -29 -9 -4 3 -9 -4 -13 -16 -4 -13 -12 -19 -21 -16 -12 5 -18
-5 -15 -26 0 -4 -5 -5 -13 -2 -8 3 -17 0 -22 -7 -4 -8 -3 -10 4 -5 19 12 14
-4 -12 -35 -13 -15 -26 -25 -29 -23 -3 3 -4 -6 -3 -20 2 -14 -1 -23 -5 -20 -5
3 -9 -2 -9 -11 0 -9 -4 -13 -10 -10 -5 3 -10 1 -10 -5 0 -6 -4 -9 -9 -6 -4 3
-6 -5 -4 -18 3 -13 -3 -40 -12 -60 -12 -24 -16 -49 -12 -71 3 -20 1 -49 -5
-66 -7 -21 -7 -37 2 -58 6 -15 12 -44 13 -64 1 -21 6 -37 10 -37 5 0 6 -4 2
-9 -3 -6 3 -14 12 -20 10 -6 12 -11 6 -11 -7 0 -13 -5 -13 -11 0 -5 4 -7 10
-4 6 4 8 -6 6 -25 -3 -24 -1 -28 10 -19 10 8 15 5 20 -15 3 -14 12 -26 20 -26
13 0 19 -13 14 -35 -1 -5 1 -7 5 -3 4 3 24 -10 45 -30 55 -53 79 -72 90 -72 6
0 10 -5 10 -11 0 -7 10 -9 24 -7 17 3 23 1 19 -8 -3 -8 10 -15 42 -20 32 -4
43 -9 34 -15 -10 -6 -10 -9 -2 -9 6 0 15 5 18 11 5 7 14 4 28 -8 11 -10 17
-12 13 -5 -4 6 -2 12 3 12 6 0 11 -4 11 -9 0 -6 12 -6 30 -1 25 7 84 0 93 -12
1 -1 13 5 27 15 13 9 31 17 40 17 8 0 28 7 43 15 15 8 34 12 42 8 8 -3 15 1
15 8 0 7 3 10 6 6 8 -8 44 25 38 35 -3 4 7 3 23 -3 15 -5 24 -7 21 -3 -11 10
50 94 68 94 9 0 12 -5 8 -12 -4 -7 -3 -8 4 -4 6 4 9 13 6 21 -4 8 1 18 10 21
9 3 16 14 16 23 0 24 11 33 26 20 17 -14 30 9 15 24 -9 9 -11 7 -6 -8 5 -14 4
-16 -3 -7 -10 14 17 114 28 107 4 -2 7 13 8 33 2 20 5 44 7 53 3 8 -3 24 -14
35 -17 19 -32 20 -252 22 l-234 1 -21 -25 c-17 -19 -21 -33 -17 -62 3 -20 9
-41 14 -47 6 -6 76 -9 180 -7 158 3 193 -2 158 -23 -6 -4 -8 -13 -6 -19 3 -7
1 -19 -5 -27 -8 -11 -9 -11 -5 2 3 9 -1 16 -8 16 -8 0 -12 -10 -9 -26 l4 -26
-15 28 c-19 32 -21 33 -21 8 0 -11 4 -17 8 -15 4 3 8 -2 8 -11 0 -11 -5 -15
-14 -12 -8 3 -17 -1 -20 -9 -4 -10 -2 -12 6 -8 7 4 8 3 4 -4 -4 -7 -14 -12
-22 -12 -8 0 -14 -4 -14 -10 0 -5 -7 -6 -17 -3 -12 5 -14 3 -8 -7 6 -10 4 -12
-10 -6 -14 5 -16 4 -6 -7 9 -12 6 -14 -14 -12 -14 2 -27 -1 -31 -6 -3 -5 -14
-9 -25 -9 -11 0 -18 -4 -15 -8 2 -4 -30 -9 -73 -11 -60 -2 -80 1 -90 13 -7 9
-17 13 -23 10 -5 -3 -14 -1 -21 4 -7 5 -22 8 -34 7 -17 -1 -20 2 -12 11 7 8 6
12 -3 11 -33 -1 -52 4 -42 11 7 4 0 16 -20 32 -28 21 -29 22 -12 2 11 -12 17
-22 14 -22 -3 0 -23 21 -44 47 -21 26 -32 43 -24 38 7 -5 4 5 -8 22 -12 17
-22 39 -22 48 0 9 -4 14 -8 11 -5 -3 -8 8 -7 25 1 16 -1 32 -4 34 -4 2 -7 21
-8 42 -1 21 1 29 4 18 3 -11 9 -24 15 -30 6 -7 7 0 2 20 -4 17 -11 32 -16 33
-14 6 -9 55 10 75 9 12 11 17 3 12 -9 -5 -12 -3 -9 6 3 8 11 13 17 11 7 -1 10
2 6 8 -7 11 45 99 71 120 19 17 18 5 -2 -14 -8 -9 -11 -16 -4 -16 6 0 16 12
23 28 14 32 27 43 45 37 8 -3 12 2 10 12 -2 9 3 18 11 21 9 3 11 0 7 -9 -4 -8
-1 -6 7 3 20 26 147 48 147 26 0 -4 9 -3 20 4 17 11 26 10 51 -4 16 -10 27
-13 23 -7 -7 12 16 1 46 -21 12 -9 9 -10 -15 -6 -22 5 -26 4 -14 -4 9 -5 29
-8 45 -6 39 5 67 -11 97 -54 13 -19 29 -34 35 -33 7 2 14 -8 18 -22 3 -14 13
-25 21 -25 8 0 12 -4 9 -9 -3 -5 6 -20 21 -35 23 -23 32 -26 67 -20 52 7 68
21 64 53 -1 14 2 32 6 40 6 9 5 12 -2 7 -6 -3 -18 4 -26 16 -12 17 -13 24 -3
30 9 6 9 8 0 8 -7 0 -13 6 -13 14 0 8 -5 18 -12 22 -7 5 -8 3 -3 -7 5 -8 -3
-3 -18 11 -28 26 -37 47 -14 34 6 -4 4 2 -6 14 -12 12 -25 18 -35 15 -10 -4
-14 -3 -10 2 11 11 -72 69 -83 58 -6 -6 9 -22 35 -41 24 -18 58 -50 75 -71 34
-42 91 -146 91 -165 0 -7 -19 -11 -50 -11 -49 0 -50 1 -72 45 -47 96 -167 182
-279 199 -69 11 -169 -3 -228 -32 -59 -28 -151 -121 -178 -178 -69 -146 -40
-318 73 -439 142 -152 406 -150 553 4 41 44 91 121 91 141 0 3 -85 5 -190 5
l-190 0 0 45 0 45 245 0 245 0 0 -22 c0 -42 -27 -125 -60 -187 -43 -79 -120
-150 -217 -198 -77 -38 -77 -38 -202 -38 -125 0 -127 0 -203 37 -131 62 -225
171 -263 302 -13 43 -16 85 -13 160 3 92 7 108 40 179 50 105 130 185 235 235
76 36 80 37 198 37 108 0 126 -3 184 -27 49 -20 68 -24 78 -16 10 8 18 6 32
-6 13 -11 21 -14 26 -7 3 6 4 12 1 12 -3 1 -9 2 -13 3 -5 1 -13 4 -18 8 -6 4
-23 5 -37 4 -21 -2 -25 1 -21 18 3 14 2 17 -4 8 -7 -9 -19 -8 -51 8 -24 12
-47 18 -51 15 -14 -8 -42 6 -35 17 4 6 -2 5 -14 -1 -26 -14 -54 -15 -33 -2 8
5 -13 7 -54 3 -50 -4 -66 -2 -61 7 4 6 5 11 2 11 -3 0 -7 -3 -7 -7z m456 -173
c3 -5 1 -10 -4 -10 -6 0 -11 5 -11 10 0 6 2 10 4 10 3 0 8 -4 11 -10z m-103
-104 c7 4 8 2 4 -5 -9 -13 -26 -5 -25 12 0 9 2 8 6 -1 2 -6 10 -9 15 -6z m43
-646 c-3 -5 -12 -10 -18 -10 -7 0 -6 4 3 10 19 12 23 12 15 0z"/>
<path d="M4030 3500 c-9 -6 -10 -10 -3 -10 6 0 15 5 18 10 8 12 4 12 -15 0z"/>
<path d="M5265 3500 c4 -6 -9 -10 -32 -11 -21 -1 -42 -2 -48 -3 -49 -11 -75
-20 -75 -25 0 -12 -60 -32 -72 -25 -8 5 -7 1 2 -11 8 -10 10 -16 3 -12 -7 4
-25 -6 -44 -25 -18 -18 -25 -24 -16 -12 9 11 17 24 17 29 0 9 -43 -37 -67 -73
-15 -21 -16 -21 -30 -5 -13 16 -13 16 -4 -4 14 -27 14 -36 1 -28 -6 3 -7 -1
-4 -9 3 -9 1 -16 -5 -16 -6 0 -11 -6 -11 -14 0 -8 -6 -16 -14 -19 -7 -3 -16
-19 -19 -37 -4 -20 -11 -29 -18 -24 -8 4 -9 -1 -4 -16 4 -12 3 -20 -1 -17 -11
6 -13 -10 -19 -130 -2 -53 0 -95 6 -98 5 -4 9 -26 9 -50 0 -24 4 -46 9 -49 5
-3 7 -16 5 -29 -2 -12 -1 -16 2 -9 5 10 9 9 20 -5 7 -10 13 -22 14 -28 0 -5
-5 -3 -11 5 -9 12 -10 12 -5 -3 3 -10 6 -21 6 -23 0 -3 5 -2 10 1 9 6 14 -8
11 -27 0 -5 2 -7 6 -7 30 5 35 -2 19 -20 -17 -19 -17 -19 8 -17 22 3 24 1 14
-11 -9 -12 -9 -14 3 -12 7 1 22 -1 32 -6 15 -6 15 -10 5 -23 -11 -13 -11 -14
1 -7 11 6 13 4 7 -10 -6 -18 -6 -18 15 1 12 10 19 13 15 7 -4 -7 -2 -13 4 -13
6 0 8 -5 5 -11 -4 -6 -1 -10 6 -9 21 3 59 -11 59 -21 0 -5 10 -9 23 -10 21 0
21 -1 2 -8 -15 -6 -8 -10 33 -16 28 -4 50 -11 47 -15 -3 -4 4 -6 16 -3 12 4
25 0 30 -8 5 -8 9 -9 9 -4 0 6 44 11 108 13 151 3 179 5 165 9 -7 3 -13 8 -13
13 0 11 62 35 82 32 13 -2 16 1 11 14 -5 13 -2 15 18 9 22 -7 23 -7 9 11 -8
10 -11 16 -6 12 5 -4 18 -2 30 4 11 7 25 11 29 10 4 -1 3 7 -4 19 -6 12 -7 19
-1 15 14 -8 45 30 36 46 -4 7 -4 10 1 6 11 -10 45 10 45 26 0 7 9 23 20 36 11
12 17 26 15 31 -3 4 -1 11 5 14 6 4 8 15 5 26 -4 10 -2 19 3 19 6 0 8 10 4 22
-3 12 -1 19 5 15 5 -4 8 6 5 25 -3 16 0 33 5 37 6 4 7 30 2 70 -4 36 -3 75 2
88 12 31 11 36 -2 27 -16 -10 -29 17 -23 46 5 20 3 22 -6 10 -10 -12 -11 -11
-7 7 3 12 2 21 -2 20 -3 -1 -8 3 -10 8 -3 6 -11 16 -18 24 -8 7 -12 20 -9 27
3 8 2 13 -2 13 -20 -3 -30 3 -35 21 -3 10 -2 21 2 23 3 2 1 2 -6 1 -15 -4 -36
22 -28 35 4 7 -1 8 -11 4 -10 -4 -15 -2 -12 3 8 13 -20 50 -29 39 -5 -4 -2
-10 5 -12 6 -3 12 -9 12 -14 0 -5 -9 -4 -19 3 -11 7 -18 15 -15 19 2 4 0 10
-6 14 -6 4 -8 11 -4 16 3 5 2 9 -3 8 -4 -1 -12 0 -18 1 -5 2 -19 3 -30 4 -11
1 -19 6 -18 12 1 6 -11 9 -30 7 -25 -2 -28 -1 -12 6 17 7 12 10 -25 16 -25 5
-75 7 -112 6 -42 -1 -68 2 -68 9 0 5 -5 10 -11 10 -5 0 -7 -4 -4 -10z m145
-40 c29 -5 82 -24 118 -42 290 -143 354 -538 123 -769 -103 -103 -216 -144
-371 -137 -90 4 -107 9 -176 43 -94 46 -179 128 -222 214 -80 160 -66 354 34
493 35 50 42 64 23 52 -8 -5 -8 -1 0 14 6 12 17 24 24 28 9 5 9 4 0 -7 -31
-33 -8 -25 49 17 126 92 251 122 398 94z m176 -42 l19 -23 -25 20 c-14 11 -27
21 -29 22 -2 2 0 3 6 3 5 0 18 -10 29 -22z m74 -802 c0 -2 -7 -7 -16 -10 -8
-3 -12 -2 -9 4 6 10 25 14 25 6z m-215 -116 c-3 -5 -14 -10 -23 -9 -14 0 -13
2 3 9 27 11 27 11 20 0z"/>
<path d="M5184 3352 c-62 -22 -120 -64 -168 -121 -38 -45 -42 -56 -27 -66 12
-7 53 44 45 57 -4 6 2 8 15 3 16 -5 20 -3 15 9 -4 11 3 19 21 26 16 6 25 16
22 23 -3 8 0 14 6 15 20 1 87 28 83 33 -2 2 28 3 67 2 40 -1 76 2 84 9 7 6 13
7 13 2 0 -5 12 -14 26 -21 22 -10 25 -10 20 4 -5 11 -2 14 10 9 8 -3 19 -6 22
-6 4 0 0 -5 -8 -11 -12 -9 -10 -10 9 -5 18 4 21 2 12 -7 -6 -6 -11 -15 -11
-20 0 -5 7 -1 16 7 17 18 46 8 63 -22 8 -13 11 -14 11 -2 0 12 3 11 11 -2 7
-12 6 -25 -2 -40 -6 -13 -8 -20 -4 -16 5 4 14 3 22 -3 10 -9 17 -8 28 1 13 11
14 10 8 -5 -5 -15 -3 -17 10 -12 15 5 16 3 7 -13 -13 -23 -13 -40 0 -20 7 11
13 5 29 -30 17 -37 19 -57 14 -113 -5 -53 -3 -71 8 -78 9 -6 10 -9 2 -9 -7 0
-11 -12 -9 -27 3 -31 -12 -73 -26 -73 -4 0 -8 8 -9 18 0 9 -3 12 -5 5 -3 -7 0
-22 7 -35 11 -21 11 -22 -4 -9 -18 14 -22 7 -18 -26 1 -6 -14 -19 -34 -29 -35
-16 -60 -39 -31 -28 9 3 16 2 16 -4 0 -13 -66 -36 -80 -27 -5 3 -10 1 -10 -4
0 -6 7 -11 16 -11 8 0 12 -5 9 -10 -4 -7 -13 -7 -25 0 -16 8 -18 8 -14 -5 5
-11 -1 -15 -26 -15 -17 0 -29 -4 -26 -9 6 -10 -149 -7 -181 3 -13 4 -23 12
-23 17 0 5 -5 9 -11 9 -5 0 -7 -5 -3 -11 4 -7 -2 -7 -17 1 -30 16 -39 25 -16
17 9 -4 17 -3 17 2 0 5 -11 11 -25 13 -15 3 -22 1 -18 -5 3 -6 1 -7 -5 -3 -7
4 -12 14 -12 21 0 9 -6 12 -15 8 -9 -3 -15 -2 -14 3 4 23 -3 34 -22 34 -11 0
-18 4 -15 9 4 5 0 12 -6 14 -10 4 -9 8 2 17 12 9 11 10 -7 5 -18 -5 -20 -3
-16 16 4 14 2 20 -4 16 -11 -7 -41 56 -41 88 0 11 -3 37 -5 57 -3 21 -1 55 5
75 5 21 10 44 10 51 1 6 5 12 9 12 5 0 5 7 2 17 -4 10 -2 14 5 9 6 -3 14 -1
18 5 4 7 3 9 -3 6 -6 -4 -14 1 -17 10 -9 23 -20 8 -41 -56 -26 -81 -18 -200
20 -277 96 -196 336 -274 528 -172 227 121 270 429 86 609 -76 74 -144 103
-253 106 -69 3 -103 -1 -142 -15z m390 -141 c-9 -10 -26 18 -18 30 5 9 9 8 14
-7 4 -10 6 -21 4 -23z m6 -465 c0 -3 -4 -8 -10 -11 -5 -3 -10 -1 -10 4 0 6 5
11 10 11 6 0 10 -2 10 -4z"/>
<path d="M5025 3330 c-4 -6 1 -7 12 -3 16 6 17 5 3 -13 -14 -18 -14 -18 2 -5
10 7 15 17 12 22 -7 12 -21 11 -29 -1z"/>
<path d="M5615 3301 c-3 -5 -2 -12 3 -15 5 -3 9 1 9 9 0 17 -3 19 -12 6z"/>
<path d="M5129 3283 c-13 -17 -13 -17 6 -3 11 8 22 16 24 17 2 2 0 3 -6 3 -6
0 -17 -8 -24 -17z"/>
<path d="M5478 3283 c7 -3 16 -2 19 1 4 3 -2 6 -13 5 -11 0 -14 -3 -6 -6z"/>
<path d="M5032 3185 c-17 -37 -14 -45 4 -12 9 16 14 31 11 33 -2 2 -9 -7 -15
-21z"/>
<path d="M5620 3131 c0 -7 -5 -9 -12 -5 -7 5 -8 3 -3 -5 5 -9 10 -10 18 -2 6
6 8 14 4 18 -4 3 -7 1 -7 -6z"/>
<path d="M5630 3066 c0 -31 6 -34 13 -6 3 11 1 23 -4 26 -5 3 -9 -6 -9 -20z"/>
<path d="M5635 2869 c-4 -6 -5 -12 -2 -15 2 -3 7 2 10 11 7 17 1 20 -8 4z"/>
<path d="M4955 2721 c-3 -5 -2 -12 3 -15 5 -3 9 1 9 9 0 17 -3 19 -12 6z"/>
<path d="M5566 2658 c3 -5 10 -6 15 -3 13 9 11 12 -6 12 -8 0 -12 -4 -9 -9z"/>
<path d="M2726 3487 c3 -10 1 -17 -5 -17 -6 0 -11 -7 -11 -15 0 -8 -4 -15 -10
-15 -6 0 -9 -72 -8 -200 1 -118 6 -200 11 -200 6 0 7 -34 3 -87 -13 -153 -14
-383 -2 -383 6 0 5 -4 -2 -9 -12 -7 -11 -14 2 -40 9 -17 20 -32 24 -32 44 -7
81 -5 75 5 -4 6 2 4 12 -4 10 -8 16 -10 12 -4 -4 7 0 15 9 18 10 4 14 14 11
26 -3 11 -1 20 4 20 5 0 9 -7 9 -15 0 -8 5 -15 10 -15 7 0 7 6 1 18 -11 22
-18 318 -8 329 5 4 12 1 17 -7 9 -13 10 -13 10 0 0 13 1 13 10 0 8 -12 10 -12
10 -1 0 11 3 11 16 0 17 -14 39 -58 35 -73 -1 -5 4 -4 11 2 11 8 17 6 27 -9 7
-12 10 -23 7 -26 -3 -3 -8 2 -12 11 -3 9 -10 13 -15 10 -11 -7 -12 -25 -1 -22
14 5 72 -50 69 -64 -2 -7 -2 -10 0 -6 3 5 19 -13 37 -40 18 -26 38 -46 45 -44
9 2 9 -3 1 -18 -9 -16 -8 -19 7 -13 12 5 15 2 10 -10 -4 -12 -2 -14 11 -10 15
6 16 5 2 -12 -9 -11 -10 -16 -2 -11 6 4 12 2 12 -3 0 -6 7 -11 16 -11 8 0 12
-4 9 -10 -7 -11 -6 -11 43 -14 17 -1 32 1 32 4 0 4 7 7 15 7 8 0 12 -4 9 -9
-8 -13 10 -10 25 5 11 10 13 9 7 -3 -5 -9 -2 -9 7 2 8 10 17 16 20 13 4 -3 5
-2 2 1 -2 4 0 15 6 25 7 15 7 19 -3 17 -7 -2 -12 4 -10 14 2 12 -2 16 -12 12
-11 -4 -13 0 -9 15 4 14 -1 23 -13 28 -20 7 -50 33 -39 33 3 0 0 6 -7 14 -7 8
-16 12 -20 10 -4 -2 -9 0 -12 5 -3 5 1 12 10 15 8 3 12 11 9 16 -5 8 -11 7
-21 -1 -12 -10 -13 -9 -8 6 5 11 3 16 -3 12 -16 -10 -42 28 -31 47 5 9 7 17 3
17 -3 1 -9 3 -15 4 -5 1 -14 3 -19 4 -5 0 -11 10 -14 22 -3 12 -10 18 -16 15
-13 -8 -23 8 -15 27 3 9 12 13 21 10 12 -5 14 -3 8 6 -6 10 -2 11 15 6 15 -5
20 -3 16 3 -4 6 5 12 21 14 16 2 28 8 28 14 0 20 54 67 70 61 11 -5 14 0 12
16 -1 12 3 21 10 20 14 -3 28 51 17 68 -5 8 -3 9 6 4 10 -6 12 -3 8 13 -4 12
-3 20 0 18 4 -2 7 20 7 50 0 30 -2 54 -5 54 -4 0 -4 16 -2 36 3 28 1 35 -8 29
-10 -6 -11 -1 -6 21 5 21 4 25 -4 14 -8 -12 -10 -10 -10 10 0 20 -2 22 -10 10
-8 -13 -10 -13 -10 1 0 9 -8 23 -17 30 -14 12 -16 12 -8 0 5 -10 4 -12 -3 -7
-8 5 -9 13 -2 25 12 24 2 33 -23 20 -11 -7 -17 -7 -13 -1 8 13 -12 29 -46 37
-16 4 -25 11 -22 16 5 8 -20 13 -68 12 -10 0 -18 4 -18 8 0 3 -9 9 -20 12 -11
3 -18 1 -14 -4 3 -5 -50 -9 -125 -9 -87 0 -131 4 -131 11 0 6 -7 3 -16 -6 -15
-15 -18 -15 -36 1 -17 16 -18 17 -12 1z m425 -53 c25 -12 62 -36 83 -54 121
-107 122 -312 0 -419 -41 -36 -123 -71 -166 -71 -16 0 -13 -7 20 -47 37 -47
95 -120 200 -254 29 -37 52 -68 52 -70 0 -2 -30 -2 -67 0 l-68 3 -54 75 c-41
57 -56 72 -63 61 -8 -10 -8 -9 -4 5 4 12 -20 52 -71 122 l-77 105 -55 0 -56 0
3 -185 3 -185 -51 0 -50 0 0 471 0 471 188 -4 c162 -3 193 -7 233 -24z"/>
<path d="M2825 3169 l0 -191 142 4 c140 3 141 3 180 34 92 73 108 199 36 285
-43 50 -76 59 -225 59 l-133 0 0 -191z m245 163 c0 9 61 -9 74 -23 7 -6 7 -10
1 -9 -19 4 -26 0 -20 -10 4 -7 13 -7 26 0 14 8 19 7 21 -2 1 -15 5 -30 8 -38
1 -3 3 -21 5 -40 2 -19 9 -36 14 -38 8 -3 7 -10 -1 -25 -6 -12 -11 -28 -12
-37 -1 -18 -25 -51 -47 -65 -9 -5 -28 -18 -41 -28 -21 -15 -30 -16 -51 -6 -20
9 -30 9 -40 1 -17 -15 -128 -11 -144 5 -15 13 -18 27 -5 19 5 -3 6 12 2 32 -3
20 -2 57 2 81 4 24 5 48 1 54 -9 15 -7 107 3 117 13 13 52 16 132 10 39 -3 72
-2 72 2z m137 -144 c-3 -8 -6 -5 -6 6 -1 11 2 17 5 13 3 -3 4 -12 1 -19z"/>
<path d="M3098 3313 c7 -3 16 -2 19 1 4 3 -2 6 -13 5 -11 0 -14 -3 -6 -6z"/>
<path d="M3055 3020 c4 -6 11 -8 16 -5 14 9 11 15 -7 15 -8 0 -12 -5 -9 -10z"/>
<path d="M3060 2786 c0 -2 8 -10 18 -17 15 -13 16 -12 3 4 -13 16 -21 21 -21
13z"/>
<path d="M3105 3490 c27 -12 43 -12 25 0 -8 5 -22 9 -30 9 -10 0 -8 -3 5 -9z"/>
<path d="M4597 3487 c4 -6 0 -8 -9 -5 -8 4 -21 -2 -28 -13 -9 -12 -16 -15 -21
-8 -4 6 -6 -99 -5 -234 1 -136 5 -249 9 -253 10 -10 9 -94 -1 -94 -4 0 -8 -79
-9 -175 -1 -170 0 -175 23 -200 12 -14 29 -25 36 -25 9 0 9 3 -2 10 -8 5 -10
10 -4 10 6 0 14 -3 18 -7 12 -13 36 -12 64 3 15 8 23 14 17 14 -5 0 -2 5 8 11
9 6 15 15 11 21 -10 16 -12 88 -2 94 4 3 7 17 7 32 l-1 27 -8 -30 c-4 -16 -7
134 -7 335 0 201 3 345 7 320 5 -31 6 -22 3 30 -6 97 -17 120 -70 135 -28 9
-41 9 -36 2z m73 -496 l0 -469 -51 -4 c-28 -1 -51 -2 -52 -1 -1 1 -1 213 1
472 l2 471 50 0 50 0 0 -469z"/>
<path d="M4640 3496 c0 -2 11 -6 25 -8 14 -3 25 -1 25 3 0 5 -11 9 -25 9 -14
0 -25 -2 -25 -4z"/>
<path d="M5130 3490 c-8 -5 -10 -10 -5 -10 6 0 17 5 25 10 8 5 11 10 5 10 -5
0 -17 -5 -25 -10z"/>
<path d="M1292 3460 c0 -14 2 -19 5 -12 2 6 2 18 0 25 -3 6 -5 1 -5 -13z"/>
<path d="M1795 3430 c-4 -6 -10 -8 -15 -5 -5 3 -11 1 -14 -4 -12 -19 10 -19
34 0 14 10 20 19 13 19 -6 0 -15 -5 -18 -10z"/>
<path d="M2345 3430 c3 -5 8 -10 11 -10 2 0 4 5 4 10 0 6 -5 10 -11 10 -5 0
-7 -4 -4 -10z"/>
<path d="M1953 3351 c-65 -24 -96 -46 -156 -110 -74 -79 -91 -126 -92 -251 0
-95 3 -111 27 -161 15 -30 43 -73 62 -95 28 -31 37 -37 47 -27 10 11 9 17 -9
34 -16 14 -21 27 -17 42 4 12 3 17 -2 11 -15 -20 -39 -12 -41 15 -1 14 -7 28
-12 31 -6 4 -8 15 -4 25 5 12 4 16 -3 12 -7 -5 -9 1 -5 15 3 14 1 19 -6 14
-15 -9 -27 116 -13 142 6 11 8 28 4 38 -4 12 -3 15 5 10 8 -5 12 1 12 18 0 14
9 35 20 46 11 11 20 27 20 36 0 8 4 12 10 9 6 -3 7 1 4 10 -4 11 -2 14 9 9 8
-3 18 -1 22 5 3 6 0 11 -7 11 -8 0 -6 5 5 11 9 5 21 8 26 5 5 -3 11 3 14 14 4
15 14 20 39 21 27 0 30 2 13 9 -19 8 -19 9 3 9 12 1 25 7 28 14 3 8 18 11 44
9 22 -2 40 0 40 5 0 5 7 10 15 10 8 0 15 -4 15 -9 0 -10 45 -6 56 5 4 4 14 1
22 -6 8 -6 17 -11 19 -9 1 1 12 2 24 2 13 0 18 -4 13 -12 -5 -8 -2 -9 9 -5 20
8 49 -2 42 -13 -3 -5 7 -11 23 -14 18 -4 32 -17 41 -37 7 -17 16 -28 19 -25 2
3 -1 14 -9 23 -12 15 -10 15 9 -1 17 -15 19 -22 11 -33 -9 -11 -9 -12 4 -8 14
6 34 -27 29 -48 -1 -5 2 -6 8 -2 9 6 14 -7 11 -27 0 -5 3 -8 9 -8 5 0 6 -7 3
-17 -5 -12 -3 -14 7 -8 10 6 11 2 6 -19 -4 -18 -3 -25 4 -21 5 3 10 -2 10 -14
0 -10 3 -28 6 -38 5 -12 4 -15 -4 -8 -5 6 -13 19 -16 30 -3 11 -3 2 0 -20 10
-66 4 -134 -12 -128 -7 2 -9 -8 -6 -28 3 -22 1 -30 -7 -25 -7 4 -11 0 -11 -12
0 -11 -8 -26 -17 -33 -17 -13 -17 -13 -3 6 14 18 14 19 -2 7 -9 -8 -14 -20
-11 -28 3 -8 0 -14 -5 -14 -19 0 -24 20 -10 38 12 15 11 16 -5 3 -10 -8 -16
-20 -13 -26 2 -7 -2 -23 -11 -35 -12 -16 -22 -20 -42 -16 -26 6 -26 6 -3 -7
27 -15 18 -31 -9 -16 -20 10 -26 0 -9 -17 7 -7 1 -9 -19 -8 -18 1 -32 -4 -35
-12 -3 -7 -12 -11 -21 -8 -8 3 -15 2 -15 -4 0 -9 -117 -9 -170 1 -14 2 -29 5
-33 6 -5 0 -6 5 -3 9 3 5 0 9 -7 10 -33 2 -63 13 -74 28 -6 9 -17 13 -23 9
-31 -19 77 -79 169 -94 256 -41 477 176 440 433 -17 125 -98 235 -216 292 -76
38 -211 45 -290 15z m373 -629 c-17 -16 -18 -16 -5 5 7 12 15 20 18 17 3 -2
-3 -12 -13 -22z"/>
<path d="M3670 3361 c0 -6 4 -13 10 -16 6 -3 7 1 4 9 -7 18 -14 21 -14 7z"/>
<path d="M3789 3313 c-13 -15 -12 -15 9 -4 23 12 28 21 13 21 -5 0 -15 -7 -22
-17z"/>
<path d="M1970 3310 c-8 -5 -10 -10 -5 -10 6 0 17 5 25 10 8 5 11 10 5 10 -5
0 -17 -5 -25 -10z"/>
<path d="M830 3290 c-18 -12 -2 -12 25 0 13 6 15 9 5 9 -8 0 -22 -4 -30 -9z"/>
<path d="M245 3269 c-4 -6 -5 -12 -2 -15 2 -3 7 2 10 11 7 17 1 20 -8 4z"/>
<path d="M2530 3269 c0 -5 5 -7 10 -4 6 3 10 8 10 11 0 2 -4 4 -10 4 -5 0 -10
-5 -10 -11z"/>
<path d="M3445 3270 c-3 -6 1 -7 9 -4 18 7 21 14 7 14 -6 0 -13 -4 -16 -10z"/>
<path d="M425 3230 c-3 -5 -1 -10 4 -10 6 0 11 5 11 10 0 6 -2 10 -4 10 -3 0
-8 -4 -11 -10z"/>
<path d="M2440 3191 c0 -6 4 -13 10 -16 6 -3 7 1 4 9 -7 18 -14 21 -14 7z"/>
<path d="M4701 3184 c0 -11 3 -14 6 -6 3 7 2 16 -1 19 -3 4 -6 -2 -5 -13z"/>
<path d="M960 3183 c0 -6 7 -16 15 -23 18 -15 20 -35 3 -24 -7 5 -8 3 -3 -5 5
-9 11 -9 17 -3 7 7 4 19 -11 38 -11 15 -21 22 -21 17z"/>
<path d="M4701 3084 c0 -11 3 -14 6 -6 3 7 2 16 -1 19 -3 4 -6 -2 -5 -13z"/>
<path d="M3570 3066 c0 -8 4 -17 9 -20 5 -4 7 3 4 14 -6 23 -13 26 -13 6z"/>
<path d="M5820 3061 c0 -5 5 -13 10 -16 6 -3 10 -2 10 4 0 5 -4 13 -10 16 -5
3 -10 2 -10 -4z"/>
<path d="M4703 3010 c0 -30 2 -43 4 -27 2 15 2 39 0 55 -2 15 -4 2 -4 -28z"/>
<path d="M1740 2971 c0 -6 4 -13 10 -16 6 -3 7 1 4 9 -7 18 -14 21 -14 7z"/>
<path d="M3257 2944 c-18 -25 -16 -44 6 -44 7 0 6 4 -3 10 -12 7 -11 12 8 29
13 10 19 21 15 24 -4 3 -16 -6 -26 -19z"/>
<path d="M161 2924 c0 -11 3 -14 6 -6 3 7 2 16 -1 19 -3 4 -6 -2 -5 -13z"/>
<path d="M4701 2894 c0 -11 3 -14 6 -6 3 7 2 16 -1 19 -3 4 -6 -2 -5 -13z"/>
<path d="M4802 2890 c0 -14 2 -19 5 -12 2 6 2 18 0 25 -3 6 -5 1 -5 -13z"/>
<path d="M356 2867 c3 -10 9 -15 12 -12 3 3 0 11 -7 18 -10 9 -11 8 -5 -6z"/>
<path d="M640 2856 c0 -2 7 -7 16 -10 8 -3 12 -2 9 4 -6 10 -25 14 -25 6z"/>
<path d="M838 2833 c23 -2 59 -2 80 0 20 2 1 4 -43 4 -44 0 -61 -2 -37 -4z"/>
<path d="M4075 2830 c-3 -6 1 -7 9 -4 18 7 21 14 7 14 -6 0 -13 -4 -16 -10z"/>
<path d="M4123 2833 c9 -2 23 -2 30 0 6 3 -1 5 -18 5 -16 0 -22 -2 -12 -5z"/>
<path d="M3855 2820 c3 -5 8 -10 11 -10 2 0 4 5 4 10 0 6 -5 10 -11 10 -5 0
-7 -4 -4 -10z"/>
<path d="M3938 2823 c6 -2 18 -2 25 0 6 3 1 5 -13 5 -14 0 -19 -2 -12 -5z"/>
<path d="M4811 2794 c0 -11 3 -14 6 -6 3 7 2 16 -1 19 -3 4 -6 -2 -5 -13z"/>
<path d="M3664 2785 c-4 -8 -11 -12 -18 -8 -6 3 -7 2 -3 -2 14 -16 33 -13 33
6 0 23 -5 24 -12 4z"/>
<path d="M420 2771 c0 -5 7 -15 17 -22 15 -13 15 -12 4 9 -12 23 -21 28 -21
13z"/>
<path d="M1600 2741 c0 -6 4 -13 10 -16 6 -3 7 1 4 9 -7 18 -14 21 -14 7z"/>
<path d="M4249 2727 c6 -8 7 -18 3 -22 -4 -5 -1 -5 6 -1 10 6 10 11 1 22 -6 8
-14 14 -16 14 -3 0 0 -6 6 -13z"/>
<path d="M3605 2711 c-3 -5 -2 -12 3 -15 5 -3 9 1 9 9 0 17 -3 19 -12 6z"/>
<path d="M1896 2701 c-4 -5 -2 -12 3 -15 5 -4 12 -2 15 3 4 5 2 12 -3 15 -5 4
-12 2 -15 -3z"/>
<path d="M1102 2680 c-6 -10 -8 -21 -3 -24 5 -3 11 4 14 16 8 29 4 32 -11 8z"/>
<path d="M4200 2668 c-19 -16 -26 -26 -15 -20 18 9 64 53 54 52 -2 -1 -20 -15
-39 -32z"/>
<path d="M5719 2653 c-13 -16 -12 -17 4 -4 9 7 17 15 17 17 0 8 -8 3 -21 -13z"/>
<path d="M3900 2656 c0 -2 7 -6 15 -10 8 -3 15 -1 15 4 0 6 -7 10 -15 10 -8 0
-15 -2 -15 -4z"/>
<path d="M1681 2634 c0 -11 3 -14 6 -6 3 7 2 16 -1 19 -3 4 -6 -2 -5 -13z"/>
<path d="M4286 2641 c-4 -7 -5 -15 -2 -18 9 -9 19 4 14 18 -4 11 -6 11 -12 0z"/>
<path d="M3555 2600 c3 -5 11 -10 16 -10 6 0 7 5 4 10 -3 6 -11 10 -16 10 -6
0 -7 -4 -4 -10z"/>
<path d="M5650 2580 c-9 -6 -10 -10 -3 -10 6 0 15 5 18 10 8 12 4 12 -15 0z"/>
<path d="M4105 2510 c-3 -6 1 -7 9 -4 18 7 21 14 7 14 -6 0 -13 -4 -16 -10z"/>
<path d="M1857 2499 c7 -7 15 -10 18 -7 3 3 -2 9 -12 12 -14 6 -15 5 -6 -5z"/>
<path d="M3730 2496 c0 -2 7 -7 16 -10 8 -3 12 -2 9 4 -6 10 -25 14 -25 6z"/>
<path d="M4080 2490 c8 -5 20 -10 25 -10 6 0 3 5 -5 10 -8 5 -19 10 -25 10 -5
0 -3 -5 5 -10z"/>
</g>
</svg>
